<svg version="1.1" id="Layer_1" xmlns="http://www.w3.org/2000/svg" xmlns:xlink="http://www.w3.org/1999/xlink" x="0px" y="0px"
	 width="100%" viewBox="0 0 250 238" enable-background="new 0 0 250 238" xml:space="preserve">
<path fill="transparent" opacity="1.000000" stroke="none" 
	d="
M1.000000,89.000000 
	C1.000000,59.333340 1.000000,30.166677 1.000000,1.000012 
	C84.333313,1.000008 167.666626,1.000008 250.999954,1.000004 
	C250.999969,80.333298 250.999969,159.666595 250.999985,238.999908 
	C167.666718,238.999939 84.333435,238.999939 1.000074,238.999969 
	C1.000000,189.166672 1.000000,139.333328 1.000000,89.000000 
M131.029358,164.011871 
	C131.029358,164.011871 131.061096,164.093414 131.724579,163.855728 
	C133.096252,161.226379 134.467941,158.597015 135.984329,155.042633 
	C135.994202,130.727173 136.004074,106.411705 136.478256,82.000023 
	C136.478256,82.000023 136.921951,81.832825 137.867783,81.965630 
	C149.244278,82.308426 160.618759,82.783569 171.997833,82.956902 
	C183.439835,83.131195 194.886963,83.059685 206.330322,82.945282 
	C207.850616,82.930084 210.125412,82.489494 210.747940,81.458923 
	C213.742157,76.502037 216.289322,71.275101 219.666260,65.891533 
	C221.263794,61.443268 217.604813,63.075817 216.068008,63.073051 
	C167.138641,62.984974 118.209084,62.994953 69.279556,62.990128 
	C68.291893,62.990028 67.304230,62.990112 65.611557,62.990112 
	C66.223061,64.362755 66.627831,65.271332 67.007370,66.896446 
	C69.378334,71.117676 71.266945,75.740097 74.311745,79.400887 
	C75.981934,81.408981 79.545464,81.990372 82.372314,82.812782 
	C83.446037,83.125145 84.847107,82.052612 86.100395,82.048569 
	C96.082611,82.016335 106.065163,82.089256 116.002525,82.000267 
	C116.002525,82.000267 115.872726,82.044968 115.978806,82.671722 
	C116.305954,83.153366 116.633095,83.635002 117.005592,84.497879 
	C117.005592,84.497879 117.040749,84.880196 116.241287,85.290352 
	C116.213097,99.476418 116.184906,113.662491 116.036018,128.717422 
	C116.043983,136.182922 115.637619,143.681717 116.233673,151.099960 
	C116.534348,154.841904 118.651543,158.437897 119.965294,162.017883 
	C119.965294,162.017883 119.885086,162.042633 120.001350,162.775314 
	C121.779358,166.349365 123.557358,169.923401 125.335365,173.497452 
	C125.834373,173.344620 126.333382,173.191772 126.832390,173.038940 
	C128.258698,170.040115 129.685013,167.041290 131.029358,164.011871 
M107.814690,129.515274 
	C107.871574,125.064728 107.881584,120.612930 108.000145,116.164032 
	C108.095474,112.586945 106.610390,111.753441 102.991623,111.804543 
	C95.333900,111.912682 87.664780,111.213554 79.973419,110.124374 
	C78.695747,107.908997 77.422653,105.690956 76.139664,103.478661 
	C67.911339,89.290276 59.636589,75.128433 51.500778,60.887199 
	C50.336781,58.849689 49.841125,56.430363 49.960232,54.037964 
	C76.992027,54.361954 104.023247,54.772675 131.056000,54.952209 
	C138.300140,55.000324 145.546738,54.130768 152.796112,54.054939 
	C167.259415,53.903648 181.726669,53.896049 196.189835,54.054188 
	C204.595459,54.146099 212.994553,54.754208 221.400787,54.941292 
	C223.107742,54.979286 225.709839,54.734097 226.401367,53.657394 
	C229.676147,48.558575 232.431564,43.126186 235.963425,37.376015 
	C236.416611,32.822803 232.864685,35.112331 231.415558,35.109665 
	C160.823639,34.979866 90.231445,34.998890 19.639280,35.001358 
	C18.197083,35.001408 16.754885,35.001366 14.086678,35.001366 
	C15.802536,37.274414 16.891781,38.717369 17.998755,40.879608 
	C18.323372,41.616268 18.582956,42.390358 18.982178,43.084087 
	C27.621061,58.095947 36.242138,73.118294 44.960167,88.084152 
	C46.397274,90.551163 48.272690,92.762856 49.954819,95.026268 
	C49.954819,95.026268 49.889748,95.041916 49.962479,95.772400 
	C51.980610,98.898315 53.998745,102.024223 56.026653,105.709869 
	C56.294750,106.134384 56.562847,106.558907 56.984570,107.720154 
	C61.274307,115.147598 65.564041,122.575043 70.306900,130.771423 
	C81.905739,130.844330 93.504555,130.934174 105.103455,130.945786 
	C105.762665,130.946457 106.422523,130.306290 107.814690,129.515274 
M144.116791,112.663727 
	C144.081970,117.490997 144.122894,122.320457 143.983002,127.144676 
	C143.903259,129.893951 144.949463,131.111176 147.773544,131.010620 
	C151.395706,130.881607 155.025940,130.979263 159.414413,130.979263 
	C148.165543,150.486542 137.271133,169.379105 125.611885,189.598022 
	C120.221077,179.700989 115.386726,171.175751 110.922440,162.460922 
	C109.080589,158.865417 107.515205,156.245239 102.618874,156.791000 
	C98.462379,157.254303 94.153061,156.212936 89.903252,156.052948 
	C88.601379,156.003937 87.272675,156.667328 85.165749,157.206955 
	C98.748108,180.790421 111.934006,203.685486 125.119904,226.580566 
	C125.798660,226.483459 126.477417,226.386368 127.156174,226.289261 
	C129.882812,221.575943 132.600006,216.857132 135.337906,212.150360 
	C142.767761,199.377640 150.251526,186.636047 157.630707,173.834167 
	C167.999161,155.846283 178.340927,137.842468 188.557785,119.768417 
	C189.858475,117.467422 190.338760,114.702675 190.806305,111.316719 
	C175.930359,111.209465 161.054443,111.091637 146.178314,111.043076 
	C145.702942,111.041519 145.225266,111.751015 144.116791,112.663727 
z"/>
<path fill="#64ffda" opacity="1.000000" stroke="none" 
	d="
M56.830940,106.983421 
	C56.562847,106.558907 56.294750,106.134384 56.020760,105.035034 
	C53.973160,101.254105 51.931454,98.148010 49.889748,95.041916 
	C49.889748,95.041916 49.954819,95.026268 49.953316,94.673615 
	C49.235554,92.299164 48.811401,90.108658 47.756653,88.282356 
	C39.602409,74.163254 31.295813,60.132206 23.116459,46.027466 
	C21.684261,43.557735 20.627823,40.870102 19.013029,37.473732 
	C22.559845,37.266365 24.839827,37.017307 27.119884,37.016602 
	C92.945595,36.996201 158.771317,37.000057 224.597031,37.004894 
	C226.095901,37.005005 227.795990,36.635067 229.033646,37.218967 
	C230.138596,37.740276 231.562958,39.464348 231.420135,40.451290 
	C230.342361,47.899242 224.215332,52.949970 216.721420,52.950409 
	C163.227615,52.953556 109.733788,52.939350 56.240074,53.009590 
	C53.838257,53.012741 51.437443,53.777645 49.036160,54.187744 
	C49.841125,56.430363 50.336781,58.849689 51.500778,60.887199 
	C59.636589,75.128433 67.911339,89.290276 76.139664,103.478661 
	C77.422653,105.690956 78.695747,107.908997 80.208496,110.814362 
	C85.615845,112.017845 90.780716,112.858864 95.961937,112.975945 
	C106.398666,113.211784 106.290321,113.046310 106.018822,123.620361 
	C105.922150,127.385300 104.570023,129.098312 100.705742,129.016891 
	C94.395767,128.883926 88.014786,128.411179 81.784294,129.128586 
	C73.483170,130.084381 68.892769,126.556946 65.493935,119.365799 
	C63.372055,114.876396 59.769207,111.086967 56.830940,106.983421 
z"/>
<path fill="#64ffda" opacity="1.000000" stroke="none" 
	d="
M191.199097,112.152771 
	C190.338760,114.702675 189.858475,117.467422 188.557785,119.768417 
	C178.340927,137.842468 167.999161,155.846283 157.630707,173.834167 
	C150.251526,186.636047 142.767761,199.377640 135.337906,212.150360 
	C132.600006,216.857132 129.882812,221.575943 127.156174,226.289261 
	C126.477417,226.386368 125.798660,226.483459 125.119904,226.580566 
	C111.934006,203.685486 98.748108,180.790421 85.165749,157.206955 
	C87.272675,156.667328 88.601379,156.003937 89.903252,156.052948 
	C94.153061,156.212936 98.462379,157.254303 102.618874,156.791000 
	C107.515205,156.245239 109.080589,158.865417 110.922440,162.460922 
	C115.386726,171.175751 120.221077,179.700989 125.611885,189.598022 
	C137.271133,169.379105 148.165543,150.486542 159.414413,130.979263 
	C155.025940,130.979263 151.395706,130.881607 147.773544,131.010620 
	C144.949463,131.111176 143.903259,129.893951 143.983002,127.144676 
	C144.122894,122.320457 144.081970,117.490997 144.923309,112.419220 
	C160.886261,112.167397 176.042679,112.160080 191.199097,112.152771 
z"/>
<path fill="#64ffda" opacity="1.000000" stroke="none" 
	d="
M117.040749,84.880196 
	C117.040749,84.880196 117.005592,84.497879 117.108940,84.089645 
	C116.765770,83.135925 116.319244,82.590446 115.872726,82.044968 
	C115.872726,82.044968 116.002525,82.000267 115.677032,81.825241 
	C106.396881,81.422356 97.369972,80.389633 88.507172,81.185181 
	C78.985031,82.039902 74.715553,76.611252 70.953316,69.679596 
	C69.480057,66.965225 70.214706,65.163521 73.592072,65.056229 
	C74.756714,65.019226 75.922791,65.016479 77.088211,65.016403 
	C121.048225,65.013664 165.008240,65.011742 208.968262,65.017822 
	C210.464935,65.018036 212.135880,64.709526 213.402298,65.272369 
	C214.388931,65.710861 215.577255,67.363968 215.464264,68.336510 
	C214.748825,74.493668 207.286560,80.915054 201.049850,80.946045 
	C192.241165,80.989815 183.431992,80.957893 174.623108,80.931053 
	C166.299515,80.905693 157.974289,80.726532 149.653244,80.849319 
	C145.405563,80.912003 141.165466,81.488541 136.921951,81.832825 
	C136.921951,81.832825 136.478256,82.000023 136.054245,82.190948 
	C135.337997,82.529182 135.092514,82.732857 134.698212,83.356110 
	C134.327118,87.193771 134.177567,90.669769 133.971954,94.142448 
	C132.592346,117.442497 137.101135,140.987717 131.061096,164.093414 
	C131.061096,164.093414 131.029358,164.011871 130.746765,164.111359 
	C127.397522,167.531235 124.619232,168.716415 122.353127,163.378342 
	C122.067360,162.705185 120.733398,162.476990 119.885086,162.042633 
	C119.885086,162.042633 119.965294,162.017883 119.952866,161.654297 
	C119.301270,155.388443 118.196373,149.492935 118.111053,143.582687 
	C117.863983,126.469696 118.054749,109.350708 117.992790,92.234360 
	C117.985123,90.115181 117.488716,87.997772 117.152504,85.633575 
	C117.071075,85.218475 117.055908,85.049332 117.040749,84.880196 
z"/>
<path fill="#64ffda" opacity="1.000000" stroke="none" 
	d="
M49.498196,54.112854 
	C51.437443,53.777645 53.838257,53.012741 56.240074,53.009590 
	C109.733788,52.939350 163.227615,52.953556 216.721420,52.950409 
	C224.215332,52.949970 230.342361,47.899242 231.420135,40.451290 
	C231.562958,39.464348 230.138596,37.740276 229.033646,37.218967 
	C227.795990,36.635067 226.095901,37.005005 224.597031,37.004894 
	C158.771317,37.000057 92.945595,36.996201 27.119884,37.016602 
	C24.839827,37.017307 22.559845,37.266365 19.013029,37.473732 
	C20.627823,40.870102 21.684261,43.557735 23.116459,46.027466 
	C31.295813,60.132206 39.602409,74.163254 47.756653,88.282356 
	C48.811401,90.108658 49.235554,92.299164 49.948677,94.706757 
	C48.272690,92.762856 46.397274,90.551163 44.960167,88.084152 
	C36.242138,73.118294 27.621061,58.095947 18.982178,43.084087 
	C18.582956,42.390358 18.323372,41.616268 17.975109,40.155529 
	C16.757551,34.726650 20.432749,36.034603 22.487503,36.032639 
	C91.473717,35.966675 160.460007,35.963543 229.446167,36.056366 
	C231.422256,36.059029 233.396790,37.201595 235.372055,37.812653 
	C232.431564,43.126186 229.676147,48.558575 226.401367,53.657394 
	C225.709839,54.734097 223.107742,54.979286 221.400787,54.941292 
	C212.994553,54.754208 204.595459,54.146099 196.189835,54.054188 
	C181.726669,53.896049 167.259415,53.903648 152.796112,54.054939 
	C145.546738,54.130768 138.300140,55.000324 131.056000,54.952209 
	C104.023247,54.772675 76.992027,54.361954 49.498196,54.112854 
z"/>
<path fill="#64ffda" opacity="1.000000" stroke="none" 
	d="
M137.394867,81.899223 
	C141.165466,81.488541 145.405563,80.912003 149.653244,80.849319 
	C157.974289,80.726532 166.299515,80.905693 174.623108,80.931053 
	C183.431992,80.957893 192.241165,80.989815 201.049850,80.946045 
	C207.286560,80.915054 214.748825,74.493668 215.464264,68.336510 
	C215.577255,67.363968 214.388931,65.710861 213.402298,65.272369 
	C212.135880,64.709526 210.464935,65.018036 208.968262,65.017822 
	C165.008240,65.011742 121.048225,65.013664 77.088211,65.016403 
	C75.922791,65.016479 74.756714,65.019226 73.592072,65.056229 
	C70.214706,65.163521 69.480057,66.965225 70.953316,69.679596 
	C74.715553,76.611252 78.985031,82.039902 88.507172,81.185181 
	C97.369972,80.389633 106.396881,81.422356 115.699585,81.890076 
	C106.065163,82.089256 96.082611,82.016335 86.100395,82.048569 
	C84.847107,82.052612 83.446037,83.125145 82.372314,82.812782 
	C79.545464,81.990372 75.981934,81.408981 74.311745,79.400887 
	C71.266945,75.740097 69.378334,71.117676 67.169563,66.167450 
	C68.822510,64.953522 70.296959,64.121231 71.807152,64.050308 
	C75.956337,63.855457 80.120522,63.979156 84.278770,63.978428 
	C127.025719,63.970955 169.772766,63.931957 212.519363,64.049644 
	C214.679886,64.055588 216.836655,65.414871 218.995178,66.144028 
	C216.289322,71.275101 213.742157,76.502037 210.747940,81.458923 
	C210.125412,82.489494 207.850616,82.930084 206.330322,82.945282 
	C194.886963,83.059685 183.439835,83.131195 171.997833,82.956902 
	C160.618759,82.783569 149.244278,82.308426 137.394867,81.899223 
z"/>
<path fill="#64ffda" opacity="1.000000" stroke="none" 
	d="
M235.667740,37.594337 
	C233.396790,37.201595 231.422256,36.059029 229.446167,36.056366 
	C160.460007,35.963543 91.473717,35.966675 22.487503,36.032639 
	C20.432749,36.034603 16.757551,34.726650 17.966244,39.795887 
	C16.891781,38.717369 15.802536,37.274414 14.086678,35.001366 
	C16.754885,35.001366 18.197083,35.001408 19.639280,35.001358 
	C90.231445,34.998890 160.823639,34.979866 231.415558,35.109665 
	C232.864685,35.112331 236.416611,32.822803 235.667740,37.594337 
z"/>
<path fill="#64ffda" opacity="1.000000" stroke="none" 
	d="
M219.330719,66.017776 
	C216.836655,65.414871 214.679886,64.055588 212.519363,64.049644 
	C169.772766,63.931957 127.025719,63.970955 84.278770,63.978428 
	C80.120522,63.979156 75.956337,63.855457 71.807152,64.050308 
	C70.296959,64.121231 68.822510,64.953522 67.182175,65.809174 
	C66.627831,65.271332 66.223061,64.362755 65.611557,62.990112 
	C67.304230,62.990112 68.291893,62.990028 69.279556,62.990128 
	C118.209084,62.994953 167.138641,62.984974 216.068008,63.073051 
	C217.604813,63.075817 221.263794,61.443268 219.330719,66.017776 
z"/>
<path fill="#64ffda" opacity="1.000000" stroke="none" 
	d="
M56.907753,107.351791 
	C59.769207,111.086967 63.372055,114.876396 65.493935,119.365799 
	C68.892769,126.556946 73.483170,130.084381 81.784294,129.128586 
	C88.014786,128.411179 94.395767,128.883926 100.705742,129.016891 
	C104.570023,129.098312 105.922150,127.385300 106.018822,123.620361 
	C106.290321,113.046310 106.398666,113.211784 95.961937,112.975945 
	C90.780716,112.858864 85.615845,112.017845 80.221954,111.174927 
	C87.664780,111.213554 95.333900,111.912682 102.991623,111.804543 
	C106.610390,111.753441 108.095474,112.586945 108.000145,116.164032 
	C107.881584,120.612930 107.871574,125.064728 106.973007,129.756165 
	C94.038811,129.998886 81.946289,130.000687 69.853775,130.002487 
	C65.564041,122.575043 61.274307,115.147598 56.907753,107.351791 
z"/>
<path fill="#64ffda" opacity="1.000000" stroke="none" 
	d="
M117.218781,85.879539 
	C117.488716,87.997772 117.985123,90.115181 117.992790,92.234360 
	C118.054749,109.350708 117.863983,126.469696 118.111053,143.582687 
	C118.196373,149.492935 119.301270,155.388443 119.943893,161.695282 
	C118.651543,158.437897 116.534348,154.841904 116.233673,151.099960 
	C115.637619,143.681717 116.043983,136.182922 116.311394,127.945854 
	C116.717491,125.194862 116.944351,123.216362 116.963150,121.235870 
	C117.075043,109.450684 117.138840,97.665031 117.218781,85.879539 
z"/>
<path fill="#64ffda" opacity="1.000000" stroke="none" 
	d="
M131.392838,163.974579 
	C137.101135,140.987717 132.592346,117.442497 133.971954,94.142448 
	C134.177567,90.669769 134.327118,87.193771 134.753479,83.822403 
	C135.012344,105.838661 134.998383,127.751900 135.063614,149.664902 
	C135.069870,151.766571 135.569183,153.866776 135.839615,155.967651 
	C134.467941,158.597015 133.096252,161.226379 131.392838,163.974579 
z"/>
<path fill="#64ffda" opacity="1.000000" stroke="none" 
	d="
M135.911972,155.505142 
	C135.569183,153.866776 135.069870,151.766571 135.063614,149.664902 
	C134.998383,127.751900 135.012344,105.838661 134.949081,83.459198 
	C135.092514,82.732857 135.337997,82.529182 135.822083,82.239059 
	C136.004074,106.411705 135.994202,130.727173 135.911972,155.505142 
z"/>
<path fill="#64ffda" opacity="1.000000" stroke="none" 
	d="
M191.002701,111.734741 
	C176.042679,112.160080 160.886261,112.167397 145.239258,112.151878 
	C145.225266,111.751015 145.702942,111.041519 146.178314,111.043076 
	C161.054443,111.091637 175.930359,111.209465 191.002701,111.734741 
z"/>
<path fill="#64ffda" opacity="1.000000" stroke="none" 
	d="
M119.943222,162.408966 
	C120.733398,162.476990 122.067360,162.705185 122.353127,163.378342 
	C124.619232,168.716415 127.397522,167.531235 130.787750,164.126648 
	C129.685013,167.041290 128.258698,170.040115 126.832390,173.038940 
	C126.333382,173.191772 125.834373,173.344620 125.335365,173.497452 
	C123.557358,169.923401 121.779358,166.349365 119.943222,162.408966 
z"/>
<path fill="#64ffda" opacity="1.000000" stroke="none" 
	d="
M117.152512,85.633575 
	C117.138840,97.665031 117.075043,109.450684 116.963150,121.235870 
	C116.944351,123.216362 116.717491,125.194862 116.371750,127.511421 
	C116.184906,113.662491 116.213097,99.476418 116.641022,85.085274 
	C117.055908,85.049332 117.071075,85.218475 117.152512,85.633575 
z"/>
<path fill="#64ffda" opacity="1.000000" stroke="none" 
	d="
M70.080338,130.386963 
	C81.946289,130.000687 94.038811,129.998886 106.606705,129.980713 
	C106.422523,130.306290 105.762665,130.946457 105.103455,130.945786 
	C93.504555,130.934174 81.905739,130.844330 70.080338,130.386963 
z"/>
<path fill="#64ffda" opacity="1.000000" stroke="none" 
	d="
M49.926113,95.407158 
	C51.931454,98.148010 53.973160,101.254105 56.015869,104.755173 
	C53.998745,102.024223 51.980610,98.898315 49.926113,95.407158 
z"/>
<path fill="#64ffda" opacity="1.000000" stroke="none" 
	d="
M115.925766,82.358345 
	C116.319244,82.590446 116.765770,83.135925 117.086258,83.899017 
	C116.633095,83.635002 116.305954,83.153366 115.925766,82.358345 
z"/>
</svg>